<svg width="806" height="613" viewBox="0 0 806 613" fill="none" xmlns="http://www.w3.org/2000/svg">
  <path d="M92.7143 518.299C156.546 500.319 259.861 463.457 399.766 463.457C613.72 463.457 759.689 532.346 771.488 541.898C783.068 551.273 769.756 555.776 734.738 567.624L732.717 568.308C696.194 580.669 673.718 571.679 650.118 559.879C647.198 558.419 642.884 556.331 637.365 553.793C695.221 580.402 628.729 612.762 405.692 612.762C222.037 612.762 100.601 601.914 155.477 566.137C144.464 570.684 135.863 574.068 130.362 575.612C98.3333 584.603 49.9223 558.944 39.81 553.793C33.2948 550.474 12.9246 540.775 92.7143 518.299Z" fill="#6C1943
"/>
  <path d="M147.759 535.05C137.437 530.03 139.739 513.434 142.18 505.763L155.43 465.653C196.807 451.242 287.164 426.605 317.569 443.342C347.974 460.078 335.352 480.304 325.24 488.325C268.613 481.351 183.325 516.57 147.759 535.05Z" fill="#8C1652"/>
  <path d="M658.29 535.05C668.612 530.03 666.31 513.434 663.869 505.763L650.619 465.653C609.242 451.242 518.885 426.605 488.48 443.342C458.075 460.078 470.697 480.304 480.809 488.325C537.436 481.351 622.724 516.57 658.29 535.05Z" fill="#8C1652"/>
  <path d="M147.759 535.045C137.437 530.025 139.739 513.428 142.18 505.758L148.805 485.703C179.164 472.891 258.531 449.105 333.123 456.457C341.747 469.528 332.793 482.329 325.24 488.32C268.613 481.346 183.325 516.564 147.759 535.045Z" fill="#6C1943"/>
  <path d="M658.29 535.045C668.612 530.025 666.31 513.428 663.869 505.758L657.244 485.703C626.885 472.891 547.518 449.105 472.926 456.457C464.302 469.528 473.256 482.329 480.809 488.32C537.436 481.346 622.724 516.564 658.29 535.045Z" fill="#6C1943"/>
  <path d="M147.759 535.044C137.437 530.024 139.739 513.427 142.18 505.756C180.192 491.073 272.234 463.625 336.307 471.299C334.947 478.51 329.834 484.674 325.24 488.318C268.614 481.345 183.325 516.563 147.759 535.044Z" fill="#4F1633"/>
  <path d="M658.29 535.044C668.612 530.024 666.31 513.427 663.869 505.756C625.857 491.073 533.815 463.625 469.742 471.299C471.102 478.51 476.215 484.674 480.809 488.318C537.436 481.345 622.724 516.563 658.29 535.044Z" fill="#4F1633"/>
  <path d="M151.308 534.959C145.75 532.182 136.302 520.698 142.971 496.985C145.466 488.115 150.282 477.877 155.238 466.507M151.308 534.959C148.529 537.036 139.981 542.444 128.022 547.464C116.062 552.485 106.76 549.556 103.604 547.464M151.308 534.959C175.773 519.282 242.997 487.695 316.174 486.769C322.928 487.541 335.973 484.569 334.12 466.507C331.805 443.928 309.805 441.034 295.332 441.034C280.859 441.034 228.768 436.028 155.238 466.507M96.1937 301.078C111.786 307.252 147.232 329.883 164.276 371.01C179.205 407.036 166.842 439.877 155.238 466.507M96.1937 301.078C110.732 339.437 132.569 442.417 103.604 547.464M96.1937 301.078C48.9587 307.747 21.9629 328.692 14.3694 338.331C18.9283 375.584 27.1345 389.391 52.6643 451.392C78.1942 513.393 63.1497 530.717 63.6055 534.959C63.9703 538.353 90.4234 544.71 103.604 547.464" stroke="#EE56A3" stroke-width="9.01518" stroke-linecap="round" stroke-linejoin="round"/>
  <path d="M654.741 534.959C660.299 532.182 669.747 520.698 663.078 496.985C660.583 488.115 655.766 477.877 650.811 466.507M654.741 534.959C657.52 537.036 666.068 542.444 678.027 547.464C689.987 552.485 699.288 549.556 702.444 547.464M654.741 534.959C630.276 519.282 563.052 487.695 489.875 486.769C483.121 487.541 470.076 484.569 471.928 466.507C474.244 443.928 496.243 441.034 510.717 441.034C525.19 441.034 577.281 436.028 650.811 466.507M709.855 301.078C694.263 307.252 658.817 329.883 641.773 371.01C626.844 407.036 639.207 439.877 650.811 466.507M709.855 301.078C695.316 339.437 673.48 442.417 702.444 547.464M709.855 301.078C757.09 307.747 784.086 328.692 791.679 338.331C787.121 375.584 778.914 389.391 753.385 451.392C727.855 513.393 742.899 530.717 742.443 534.959C742.079 538.353 715.625 544.71 702.444 547.464" stroke="#EE56A3" stroke-width="9.01518" stroke-linecap="round" stroke-linejoin="round"/>
  <path d="M130.569 497.349C123.9 521.063 133.348 532.546 138.905 535.323C136.127 537.4 139.981 542.444 128.022 547.464C116.062 552.485 106.76 549.556 103.604 547.464C132.569 442.417 110.732 339.437 96.1936 301.078C111.786 307.252 134.83 330.247 151.873 371.374C166.803 407.4 154.44 440.242 142.835 466.871C137.88 478.242 133.063 488.48 130.569 497.349Z" fill="#8C1652"/>
  <path d="M675.48 497.349C682.149 521.063 672.701 532.546 667.144 535.323C669.922 537.4 666.068 542.444 678.027 547.464C689.987 552.485 699.289 549.556 702.445 547.464C673.481 442.417 695.317 339.437 709.855 301.078C694.263 307.252 671.219 330.247 654.176 371.374C639.246 407.4 651.609 440.242 663.214 466.871C668.169 478.242 672.986 488.48 675.48 497.349Z" fill="#8C1652"/>
  <path d="M103.604 547.464C132.569 442.417 110.732 339.437 96.1937 301.078C48.9587 307.747 21.9629 328.692 14.3694 338.331C18.9283 375.584 27.1345 389.391 52.6643 451.392C78.1942 513.393 63.1497 530.717 63.6055 534.959C63.9703 538.353 90.4234 544.71 103.604 547.464Z" fill="#6C1943
" stroke="#EE56A3" stroke-width="9.01518" stroke-linecap="round" stroke-linejoin="round"/>
  <path d="M702.444 547.464C673.48 442.417 695.316 339.437 709.855 301.078C757.09 307.747 784.086 328.692 791.679 338.331C787.121 375.584 778.914 389.391 753.385 451.392C727.855 513.393 742.899 530.717 742.443 534.959C742.079 538.353 715.625 544.71 702.444 547.464Z" fill="#6C1943
" stroke="#EE56A3" stroke-width="9.01518" stroke-linecap="round" stroke-linejoin="round"/>
  <path d="M22.7588 377.095C29.5823 367.638 53.8368 348.164 96.2668 345.93M58.117 465.031C64.9406 460.068 83.6123 450.887 103.711 453.865M64.6304 482.245C70.3684 478.368 86.2176 471.451 103.711 474.801M171.636 461.774C184.198 469.838 204.017 492.294 182.802 517.603M208.855 448.747C220.797 454.33 240.864 472.568 225.604 500.854M245.609 442.699C257.085 451.539 275.571 474.056 257.706 493.41M277.711 439.908C287.481 446.266 303.02 464.845 287.016 488.293M304.695 442.699C312.294 449.523 324.235 467.729 311.209 485.967" stroke="#EE56A3" stroke-width="6.01012" stroke-linecap="round" stroke-linejoin="round"/>
  <path d="M783.29 377.095C776.467 367.638 752.212 348.164 709.782 345.93M747.932 465.031C741.108 460.068 722.437 450.887 702.338 453.865M741.418 482.245C735.68 478.368 719.831 471.451 702.338 474.801M634.413 461.774C621.851 469.838 602.032 492.294 623.247 517.603M597.193 448.747C585.252 454.33 565.185 472.568 580.445 500.854M560.439 442.699C548.963 451.539 530.478 474.056 548.343 493.41M528.338 439.908C518.568 446.266 503.029 464.845 519.033 488.293M501.354 442.699C493.755 449.523 481.814 467.729 494.84 485.967" stroke="#EE56A3" stroke-width="6.01012" stroke-linecap="round" stroke-linejoin="round"/>
  <path d="M203.267 279.47C197.69 229.278 204.619 132.083 209.649 80.3157C210.316 73.4426 214.897 67.5934 221.448 65.4084C353.049 21.512 497.576 39.9991 563.891 57.2737C570.278 58.9374 575.019 64.0893 575.978 70.6192C581.368 107.317 586.481 190.921 589.401 249.014C590.315 260.854 590.842 271.255 590.842 279.47C590.454 270.637 589.969 260.307 589.401 249.014C585.559 199.214 574.881 123.942 567.831 78.6765C566.66 71.1611 560.837 65.2276 553.343 63.9301C368.975 32.013 234.041 69.2545 220.222 75.4285C208.919 80.4788 204.209 213.56 203.267 279.47Z" fill="#7C1348"/>
  <path d="M236.31 252.302C230.964 205.842 235.903 139.394 240.148 102.441C240.864 96.2124 244.795 90.8587 250.688 88.7214C293.117 73.3344 394.685 54.6806 533.808 78.6877C541.402 79.9982 547.264 86.1231 548.286 93.7619C558.045 166.705 558.574 222.049 557.062 250.922C556.613 259.505 549.723 266.123 541.15 266.737C412.586 275.945 302.661 271.371 251.62 266.928C243.656 266.234 237.223 260.244 236.31 252.302Z" fill="#743461"/>
  <g filter="url(#filter0_f_37_1530)">
    <path d="M240.512 102.65L257.729 123.699C260.287 126.826 265.141 126.589 267.382 123.227L284.976 96.8327C287.053 93.716 291.445 93.2383 294.144 95.8354L317.311 118.127C319.796 120.518 323.779 120.332 326.031 117.72L348.299 91.8892C350.728 89.071 355.109 89.115 357.481 91.9816L378.178 116.991C380.566 119.876 384.983 119.899 387.399 117.038L408.795 91.712C411.132 88.9465 415.365 88.859 417.813 91.5257L436.514 111.892C438.971 114.567 443.22 114.469 445.551 111.683L462.17 91.8182C464.518 89.0119 468.808 88.937 471.252 91.6596L489.764 112.278C492.047 114.821 495.99 114.951 498.435 112.562L516.371 95.0425C518.742 92.7262 522.541 92.7672 524.862 95.1342L551.721 122.528M557.311 172.848L525.353 139.806C522.855 137.223 518.663 137.395 516.385 140.174L494.054 167.417C491.716 170.27 487.383 170.363 484.925 167.612L467.892 148.552C465.54 145.92 461.436 145.872 459.023 148.449L440.643 168.083C438.241 170.648 434.16 170.615 431.801 168.01L410.966 145.005C408.529 142.314 404.28 142.382 401.93 145.15L383.211 167.196C380.739 170.108 376.213 170.005 373.876 166.983L356.971 145.131C354.809 142.335 350.713 142 348.125 144.407L321.828 168.859C319.441 171.078 315.72 170.99 313.44 168.661L293.259 148.041C290.902 145.633 287.025 145.633 284.668 148.041L264.639 168.506C262.299 170.896 258.458 170.917 256.094 168.552L235.542 148.001M235.542 187.135L256.331 208.963C258.586 211.331 262.32 211.461 264.735 209.256L284.803 190.933C287.143 188.797 290.74 188.844 293.023 191.041L317.945 215.023C320.179 217.173 323.681 217.271 326.032 215.249L348.945 195.544C351.233 193.576 354.626 193.61 356.874 195.624L378.254 214.777C380.738 217.003 384.559 216.78 386.768 214.281L402.365 196.631C404.571 194.135 408.387 193.909 410.872 196.128L436.974 219.433C439.327 221.534 442.905 221.458 445.167 219.259L459.634 205.194C461.839 203.05 465.308 202.917 467.671 204.886L485.063 219.379C487.583 221.479 491.321 221.171 493.462 218.686L517.086 191.283C519.112 188.932 522.595 188.511 525.124 190.311L557.311 213.224M235.542 238.071L253.263 253.186C255.281 254.907 258.189 255.102 260.419 253.665L281.18 240.285C283.253 238.949 285.933 239.016 287.937 240.453L313.967 259.116C316.094 260.641 318.962 260.614 321.06 259.051L345.728 240.672C347.81 239.12 350.653 239.082 352.777 240.576L378.627 258.767C381.016 260.448 384.269 260.168 386.335 258.101L402.852 241.584C404.891 239.546 408.091 239.242 410.477 240.861L437.219 259.007C439.524 260.571 442.601 260.347 444.655 258.465L460.023 244.377C462.071 242.5 465.138 242.271 467.441 243.822L489.391 258.605C491.973 260.343 495.454 259.823 497.415 257.406L517.269 232.936C519.2 230.556 522.613 230.01 525.19 231.67L557.311 252.358" stroke="#EE56A3" stroke-width="3.00506"/>
  </g>
  <path d="M392.798 495.713C322.684 497.957 281.737 466.544 279.494 462.622C266.59 452.904 277.275 300.678 401.237 304.043C525.198 307.409 535.27 431.207 527.978 452.521C520.686 473.836 462.912 493.468 392.798 495.713Z" fill="#4F1633" stroke="#EE56A3" stroke-width="12.0202" stroke-linecap="round" stroke-linejoin="round"/>
  <path d="M248.989 328.15C218.16 308.41 205.674 287.653 203.267 279.472C254.133 291.227 402.859 307.685 590.842 279.472C580.931 302.167 560.691 317.995 549.444 324.529C547.526 325.643 545.394 326.249 543.187 326.465C443.658 336.232 314.44 333.554 257.357 330.784C254.379 330.64 251.5 329.758 248.989 328.15Z" fill="#4F1633"/>
  <path d="M203.101 277.925C197.831 227.307 204.67 131.557 209.649 80.3157C210.316 73.4426 214.897 67.5934 221.448 65.4084C353.049 21.512 497.576 39.9991 563.891 57.2737C570.278 58.9374 575.019 64.0893 575.978 70.6192C582.256 113.365 588.159 219.751 590.658 275.332C590.781 278.079 590.3 280.798 589.064 283.255C578.67 303.926 560.055 318.363 549.444 324.527C547.526 325.641 545.394 326.247 543.186 326.463C443.658 336.23 314.44 333.552 257.357 330.782C254.379 330.638 251.5 329.756 248.989 328.148C219.89 309.516 207.133 289.977 203.769 280.964C203.4 279.975 203.21 278.974 203.101 277.925Z" stroke="#EE56A3" stroke-width="9.01518"/>
  <circle cx="466.39" cy="152.083" r="45.7228" fill="#130C27" stroke="#EE56A3" stroke-width="6.01012"/>
  <circle cx="321.272" cy="152.083" r="45.7228" fill="#130C27" stroke="#EE56A3" stroke-width="6.01012"/>
  <circle cx="466.39" cy="152.081" r="33.6791" fill="#F5B000" stroke="#F5B000" stroke-width="6.01012"/>
  <circle cx="321.272" cy="152.081" r="34.1161" fill="#8C65FF" stroke="#EE56A3" stroke-width="5.13609"/>
  <g filter="url(#filter1_f_37_1530)">
    <path d="M459.577 133.774C467.062 130.502 485.951 135.113 485.951 154.032" stroke="white" stroke-width="12.0202" stroke-linecap="round" stroke-linejoin="round"/>
  </g>
  <g filter="url(#filter2_f_37_1530)">
    <path d="M314.459 133.774C321.944 130.502 340.833 135.113 340.833 154.032" stroke="white" stroke-width="12.0202" stroke-linecap="round" stroke-linejoin="round"/>
  </g>
  <path d="M313.041 216.818L308.111 246.025C317.351 247.286 329.173 248.512 342.858 249.397C354.173 250.128 366.761 250.625 380.216 250.713C391.749 250.789 403.92 250.565 416.471 249.931C428.005 249.349 439.86 248.42 451.838 247.061C462.5 245.85 473.259 244.299 483.976 242.345L478.319 211.275C469.599 213.373 460.266 215.035 450.584 216.329C439.142 217.859 427.212 218.875 415.229 219.491C403.046 220.116 390.808 220.328 378.972 220.245C366.569 220.157 354.608 219.746 343.615 219.146C332.179 218.522 321.79 217.695 313.041 216.818Z" fill="#130C27"/>
  <path d="M299.95 244.797C302.382 245.203 305.11 245.616 308.111 246.025M495.069 240.173C491.38 240.947 487.681 241.67 483.976 242.345M303.216 215.734C306.193 216.097 309.481 216.462 313.041 216.818M489.866 208.119C486.162 209.267 482.304 210.317 478.319 211.275M308.111 246.025L313.041 216.818M308.111 246.025C317.351 247.286 329.173 248.512 342.858 249.397M313.041 216.818C321.79 217.695 332.179 218.522 343.615 219.146M342.858 249.397L343.615 219.146M342.858 249.397C354.173 250.128 366.761 250.625 380.216 250.713M343.615 219.146C354.608 219.746 366.569 220.157 378.972 220.245M378.972 220.245L380.216 250.713M378.972 220.245C390.808 220.328 403.046 220.116 415.229 219.491M380.216 250.713C391.749 250.789 403.92 250.565 416.471 249.931M416.471 249.931L415.229 219.491M416.471 249.931C428.005 249.349 439.86 248.42 451.838 247.061M415.229 219.491C427.212 218.875 439.142 217.859 450.584 216.329M451.838 247.061L450.584 216.329M451.838 247.061C462.5 245.85 473.259 244.299 483.976 242.345M450.584 216.329C460.266 215.035 469.599 213.373 478.319 211.275M478.319 211.275L483.976 242.345" stroke="#EE56A3" stroke-width="6.01012" stroke-linecap="round" stroke-linejoin="round"/>
  <path d="M260.753 518.452C250.052 469.283 248.269 408.398 248.715 384.101C351.439 365.803 493.934 376.477 552.341 384.101C555.551 413.826 542.086 486.054 534.953 518.452C549.713 523.644 608.717 546.176 623.658 559.727C434.671 576.327 291.335 568.574 170.451 565.594C195.99 547.206 241.293 526.504 260.753 518.452Z" fill="#6C1943

"/>
  <path d="M260.753 518.452C250.052 469.283 248.269 408.398 248.715 384.101C351.439 365.803 493.934 376.477 552.341 384.101C555.551 413.826 542.086 486.054 534.953 518.452M260.753 518.452C271.454 518.452 448.011 518.452 534.953 518.452M260.753 518.452C241.293 526.504 195.99 547.206 170.451 565.594C291.335 568.574 434.671 576.327 623.658 559.727C608.717 546.176 549.713 523.644 534.953 518.452" stroke="#EE56A3" stroke-width="6.01012" stroke-linecap="round" stroke-linejoin="round"/>
  <path d="M258.173 395.191C255.856 402.726 265.618 473.18 270.204 507.209L526.595 509.694C533.502 492.391 539.734 428.25 543.092 398.292C472.585 376.672 261.07 385.772 258.173 395.191Z" stroke="#EE56A3" stroke-width="3.00506" stroke-linecap="round"/>
  <path d="M589.286 228.145C588.781 214.098 587.771 185.746 587.771 184.736H621.334C621.738 209.164 600.137 223.854 589.286 228.145Z" fill="#4F1633"/>
  <path d="M201.248 228.958C201.753 214.91 202.763 186.558 202.762 185.549H169.2C168.796 209.977 190.397 224.666 201.248 228.958Z" fill="#4F1633"/>
  <path d="M621.334 184.738H587.267V141.586C618.558 153.295 623.017 175.233 621.334 184.738Z" fill="#6C1943"/>
  <path d="M169.2 185.551H203.267V142.398C171.975 154.108 167.517 176.046 169.2 185.551Z" fill="#6C1943"/>
  <path d="M611.253 154.219L619.692 168.845C624.531 140.659 630.487 125.174 643.04 104.328L673.666 140.659L723.211 82.5897C754.747 93.6954 754.144 72.9268 749.901 61.1543C741.086 81.8805 726.655 75.2218 721.431 69.1036L673.666 125.952C672.085 130.286 656.414 97.9445 643.04 93.9435C629.313 92.3682 616.129 133.684 611.253 154.219Z" fill="#7C1348"/>
  <path d="M178.884 157.364L170.108 165.858C165.27 137.671 170.771 108.28 158.217 87.4352L138.787 117.747L89.2419 59.6776C57.706 70.7832 58.309 50.0147 62.5525 38.2422C71.3671 58.9684 85.7984 52.3097 91.0221 46.1915L134.852 101.307C136.434 105.641 157.469 67.1283 163.949 69.4153C170.428 71.7023 178.884 137.829 178.884 157.364Z" fill="#7C1348"/>
  <path d="M600.178 147.577C594.962 143.936 589.772 141.398 585.86 139.983L588.152 228.981C599.356 224.27 621.764 208.661 621.764 183.908C621.764 180.784 621.382 177.818 620.692 175.011M600.178 147.577C608.009 125.185 627.34 80.3257 642.007 80.0201C660.341 79.6382 665.688 114.393 671.799 110.574C677.91 106.754 696.244 78.4868 712.668 68.938C710.503 62.5728 710.206 51.4534 720.689 45.2591C731.071 39.1244 742.958 48.1091 747.015 53.3083C752.38 60.1836 757.68 73.7768 745.898 83.455C737.342 90.4829 725.527 84.0934 720.689 80.0201C707.448 101.535 679.133 143.649 671.799 139.983C662.632 135.4 646.727 91.7127 639.712 107.146C632.749 122.464 619.62 144.725 620.692 175.011M600.178 147.577C608.904 153.668 617.7 162.846 620.692 175.011" stroke="#EE56A3" stroke-width="9.01518" stroke-linecap="round" stroke-linejoin="round"/>
  <path d="M188.95 147.558C194.165 143.917 199.355 141.379 203.267 139.964L200.975 228.962C189.772 224.252 167.364 208.642 167.364 183.89C167.364 180.766 167.745 177.799 168.435 174.992M188.95 147.558C181.118 125.166 182.031 54.937 167.364 54.6314C149.03 54.2495 143.683 89.0046 137.571 85.1851C131.46 81.3656 113.127 53.0981 96.7026 43.5493C98.867 37.1842 99.1649 26.0647 88.6816 19.8705C78.2991 13.7358 66.4126 22.7205 62.3554 27.9196C56.9903 34.795 51.6908 48.3882 63.4728 58.0663C72.0286 65.0942 83.8436 58.7047 88.6816 54.6314C101.923 76.1466 130.238 118.26 137.571 114.594C146.738 110.012 156.827 73.0449 161.028 89.4688C165.23 105.893 169.507 144.706 168.435 174.992M188.95 147.558C180.223 153.65 171.427 162.828 168.435 174.992" stroke="#EE56A3" stroke-width="9.01518" stroke-linecap="round" stroke-linejoin="round"/>
  <path d="M284.033 391.701H222.328C222.328 405.013 230.519 408.616 234.615 408.754C242.718 409.031 261.702 409.42 272.814 408.754C283.927 408.088 284.924 397.108 284.033 391.701Z" fill="#8C1652"/>
  <path d="M512.703 391.701H574.409C574.409 405.013 566.217 408.616 562.121 408.754C554.019 409.031 535.035 409.42 523.923 408.754C512.81 408.088 511.813 397.108 512.703 391.701Z" fill="#8C1652"/>
  <path d="M274.485 415.436H212.779C212.779 428.747 220.971 432.351 225.067 432.488C233.169 432.766 252.153 433.154 263.265 432.488C274.378 431.823 275.375 420.843 274.485 415.436Z" fill="#8C1652"/>
  <path d="M522.253 415.436H583.958C583.958 428.747 575.767 432.351 571.671 432.488C563.568 432.766 544.584 433.154 533.472 432.488C522.359 431.823 521.362 420.843 522.253 415.436Z" fill="#8C1652"/>
  <path d="M281.368 439.172H219.662C219.662 452.484 227.854 456.087 231.95 456.225C240.053 456.502 259.036 456.89 270.149 456.225C281.261 455.559 282.258 444.579 281.368 439.172Z" fill="#8C1652"/>
  <path d="M515.369 439.172H577.075C577.075 452.484 568.883 456.087 564.787 456.225C556.685 456.502 537.701 456.89 526.589 456.225C515.476 455.559 514.479 444.579 515.369 439.172Z" fill="#8C1652"/>
  <path d="M284.033 399.188H222.328C222.328 409.638 230.519 412.467 234.615 412.575C242.718 412.792 261.702 413.097 272.814 412.575C283.927 412.052 284.924 403.432 284.033 399.188Z" fill="#6C1943"/>
  <path d="M512.703 399.188H574.409C574.409 409.638 566.217 412.467 562.121 412.575C554.019 412.792 535.035 413.097 523.923 412.575C512.81 412.052 511.813 403.432 512.703 399.188Z" fill="#6C1943"/>
  <path d="M274.485 422.924H212.779C212.779 433.374 220.971 436.203 225.067 436.311C233.169 436.529 252.153 436.834 263.265 436.311C274.378 435.789 275.375 427.169 274.485 422.924Z" fill="#6C1943"/>
  <path d="M522.253 422.924H583.958C583.958 433.374 575.767 436.203 571.671 436.311C563.568 436.529 544.584 436.834 533.472 436.311C522.359 435.789 521.362 427.169 522.253 422.924Z" fill="#6C1943"/>
  <path d="M281.368 446.66H219.662C219.662 457.111 227.854 459.939 231.95 460.047C240.053 460.265 259.036 460.57 270.149 460.047C281.261 459.525 282.258 450.905 281.368 446.66Z" fill="#6C1943"/>
  <path d="M515.369 446.66H577.075C577.075 457.111 568.883 459.939 564.787 460.047C556.685 460.265 537.701 460.57 526.589 460.047C515.476 459.525 514.479 450.905 515.369 446.66Z" fill="#6C1943"/>
  <path d="M284.033 402.805H222.328C222.328 410.492 230.519 412.573 234.615 412.653C242.718 412.813 261.702 413.037 272.814 412.653C283.927 412.268 284.924 405.927 284.033 402.805Z" fill="#4F1633"/>
  <path d="M512.703 402.805H574.409C574.409 410.492 566.217 412.573 562.121 412.653C554.019 412.813 535.035 413.037 523.923 412.653C512.81 412.268 511.813 405.927 512.703 402.805Z" fill="#4F1633"/>
  <path d="M274.485 426.539H212.779C212.779 434.227 220.971 436.308 225.067 436.387C233.169 436.547 252.153 436.771 263.265 436.387C274.378 436.003 275.375 429.662 274.485 426.539Z" fill="#4F1633"/>
  <path d="M522.253 426.539H583.958C583.958 434.227 575.767 436.308 571.671 436.387C563.568 436.547 544.584 436.771 533.472 436.387C522.359 436.003 521.362 429.662 522.253 426.539Z" fill="#4F1633"/>
  <path d="M281.368 450.273H219.662C219.662 457.961 227.854 460.042 231.95 460.121C240.053 460.282 259.036 460.506 270.149 460.121C281.261 459.737 282.258 453.396 281.368 450.273Z" fill="#4F1633"/>
  <path d="M515.369 450.273H577.075C577.075 457.961 568.883 460.042 564.787 460.121C556.685 460.282 537.701 460.506 526.589 460.121C515.476 459.737 514.479 453.396 515.369 450.273Z" fill="#4F1633"/>
  <rect x="219.952" y="388.613" width="65.6433" height="23.8409" rx="11.9205" stroke="#EE56A3" stroke-width="9.01518"/>
  <rect x="-4.50759" y="4.50759" width="65.6433" height="23.8409" rx="11.9205" transform="matrix(-1 0 0 1 572.277 384.105)" stroke="#EE56A3" stroke-width="9.01518"/>
  <rect x="210.403" y="412.349" width="65.6433" height="23.8409" rx="11.9205" stroke="#EE56A3" stroke-width="9.01518"/>
  <rect x="-4.50759" y="4.50759" width="65.6433" height="23.8409" rx="11.9205" transform="matrix(-1 0 0 1 581.827 407.842)" stroke="#EE56A3" stroke-width="9.01518"/>
  <rect x="217.286" y="436.084" width="65.6433" height="23.8409" rx="11.9205" stroke="#EE56A3" stroke-width="9.01518"/>
  <rect x="-4.50759" y="4.50759" width="65.6433" height="23.8409" rx="11.9205" transform="matrix(-1 0 0 1 574.943 431.576)" stroke="#EE56A3" stroke-width="9.01518"/>
  <path d="M242.836 389.117C240.137 392.281 235.968 401.344 240.881 412.289M263.496 389.117C260.518 392.094 255.846 400.897 260.983 412.289" stroke="#EE56A3" stroke-width="6.01012" stroke-linecap="round" stroke-linejoin="round"/>
  <path d="M553.901 389.117C556.6 392.281 560.769 401.344 555.855 412.289M533.241 389.117C536.219 392.094 540.891 400.897 535.753 412.289" stroke="#EE56A3" stroke-width="6.01012" stroke-linecap="round" stroke-linejoin="round"/>
  <path d="M233.287 412.854C230.588 416.017 226.419 425.08 231.333 436.025M253.947 412.854C250.969 415.831 246.297 424.633 251.435 436.025" stroke="#EE56A3" stroke-width="6.01012" stroke-linecap="round" stroke-linejoin="round"/>
  <path d="M563.45 412.854C566.149 416.017 570.318 425.08 565.404 436.025M542.789 412.854C545.767 415.831 550.439 424.633 545.302 436.025" stroke="#EE56A3" stroke-width="6.01012" stroke-linecap="round" stroke-linejoin="round"/>
  <path d="M240.17 436.588C237.472 439.751 233.302 448.814 238.216 459.76M260.831 436.588C257.853 439.565 253.181 448.368 258.318 459.76" stroke="#EE56A3" stroke-width="6.01012" stroke-linecap="round" stroke-linejoin="round"/>
  <path d="M556.567 436.588C559.266 439.751 563.435 448.814 558.521 459.76M535.907 436.588C538.885 439.565 543.557 448.368 538.419 459.76" stroke="#EE56A3" stroke-width="6.01012" stroke-linecap="round" stroke-linejoin="round"/>
  <path d="M269.863 532.148C272.216 532.148 441.438 532.148 525.755 532.148M254.667 541.953H551.246M234.078 551.757C238.784 551.757 459.903 551.757 569.874 551.757M302.218 527.736C299.472 531.266 282.772 548.162 274.766 556.169M397.319 527.736V556.169M325.258 527.736L305.159 558.622M348.788 527.736L338.003 556.169M372.318 527.736L368.887 556.169M421.83 527.736L426.732 556.169M443.889 527.736L458.105 556.169M469.87 527.736L491.93 556.169M496.471 527.736L533.635 556.169" stroke="#EE56A3" stroke-width="3.00506" stroke-linecap="round"/>
  <path d="M310.127 408.672C326.938 408.672 364.171 408.672 378.612 408.672M310.127 420.347H339.326M310.127 430.614H370.117M310.127 440H388.168M310.127 450.798H321.806M310.127 462.127H406.749M310.127 473.807H425.861M310.127 486.017H373.834" stroke="#EE56A3" stroke-width="3.00506" stroke-linecap="round"/>
  <path d="M169.579 565.005C156.39 572.493 215.492 577.874 405.03 577.874C586.39 577.874 636.49 563.039 621.701 557.436" stroke="#EE56A3" stroke-width="3.00506" stroke-linecap="round"/>
  <defs>
    <filter id="filter0_f_37_1530" x="225.439" y="79.0629" width="341.968" height="191.696" filterUnits="userSpaceOnUse" color-interpolation-filters="sRGB">
      <feFlood flood-opacity="0" result="BackgroundImageFix"/>
      <feBlend mode="normal" in="SourceGraphic" in2="BackgroundImageFix" result="shape"/>
      <feGaussianBlur stdDeviation="4.50759" result="effect1_foregroundBlur_37_1530"/>
    </filter>
    <filter id="filter1_f_37_1530" x="444.55" y="117.78" width="56.4264" height="51.2784" filterUnits="userSpaceOnUse" color-interpolation-filters="sRGB">
      <feFlood flood-opacity="0" result="BackgroundImageFix"/>
      <feBlend mode="normal" in="SourceGraphic" in2="BackgroundImageFix" result="shape"/>
      <feGaussianBlur stdDeviation="4.50759" result="effect1_foregroundBlur_37_1530"/>
    </filter>
    <filter id="filter2_f_37_1530" x="299.432" y="117.78" width="56.4264" height="51.2784" filterUnits="userSpaceOnUse" color-interpolation-filters="sRGB">
      <feFlood flood-opacity="0" result="BackgroundImageFix"/>
      <feBlend mode="normal" in="SourceGraphic" in2="BackgroundImageFix" result="shape"/>
      <feGaussianBlur stdDeviation="4.50759" result="effect1_foregroundBlur_37_1530"/>
    </filter>
  </defs>
</svg>
