<svg width="588" height="542" viewBox="0 0 588 542" fill="none" xmlns="http://www.w3.org/2000/svg">
  <rect x="-4.37419" y="7.27093" width="476.686" height="354.941" transform="matrix(-0.970427 0.241395 0.241395 0.970427 468.043 18.6225)" stroke="#EE56A3" stroke-width="12"/>
  <path d="M191.926 384.84C218.873 368.882 261.546 339.511 325.395 322.519C423.038 296.533 498.021 310.244 504.567 313.17C510.99 316.041 505.462 319.714 490.919 329.374L490.08 329.931C474.913 340.009 463.564 338.636 451.36 336.117C449.966 335.829 447.964 335.441 445.438 334.999C488.231 346.857 383.428 374.749 344.429 385.127C303.853 395.926 242.841 412.163 230.212 409.383C222.688 407.727 225.441 400.381 227.279 398.362C222.375 402.114 218.545 404.96 216.068 406.424C202.543 414.417 177.333 408.587 172.092 407.464C168.716 406.74 158.242 404.788 191.926 384.84Z" fill="black"/>
  <path d="M219.08 385.8C213.76 384.763 212.795 376.909 212.977 373.112L214.153 353.198C231.286 341.595 269.53 319.377 285.439 323.323C301.348 327.268 298.044 338.032 294.403 342.92C267.713 346.615 233.067 373.047 219.08 385.8Z" fill="#8C1652"/>
  <path d="M452.074 323.793C456.175 320.249 453.109 312.954 451.063 309.75L440.144 293.054C419.511 291.503 375.282 291.233 363.439 302.564C351.595 313.895 359.812 321.593 365.401 324.025C390.397 313.965 433.598 319.679 452.074 323.793Z" fill="#8C1652"/>
  <path d="M219.08 385.798C213.76 384.761 212.795 376.907 212.977 373.11L213.565 363.152C225.864 353.618 259.196 333.123 294.131 327.419C299.654 332.337 297.122 339.266 294.403 342.918C267.713 346.613 233.067 373.044 219.08 385.798Z" fill="#6C1943"/>
  <path d="M452.073 323.791C456.174 320.246 453.108 312.952 451.062 309.747L445.603 301.4C430.192 299.24 391.082 298.024 357.933 310.439C355.585 317.451 361.226 322.206 365.4 324.023C390.396 313.963 433.597 319.677 452.073 323.791Z" fill="#6C1943"/>
  <path d="M219.08 385.797C213.76 384.759 212.794 376.905 212.977 373.108C228.541 361.791 267.213 338.085 297.386 333.805C297.641 337.261 296.057 340.695 294.403 342.917C267.713 346.612 233.067 373.043 219.08 385.797Z" fill="#4F1633"/>
  <path d="M452.073 323.792C456.174 320.247 453.108 312.952 451.062 309.748C431.931 307.664 386.592 306.316 358.283 317.6C359.779 320.726 362.861 322.918 365.4 324.023C390.396 313.963 433.597 319.677 452.073 323.792Z" fill="#4F1633"/>
  <path d="M220.689 385.328C217.815 384.735 212.109 380.642 212.272 369.01C212.334 364.659 213.288 359.402 214.169 353.611M220.689 385.328C219.673 386.613 216.429 390.119 211.581 393.863C206.733 397.607 202.132 397.4 200.437 396.829M220.689 385.328C229.95 375.202 256.793 352.622 290.077 343.312C293.253 342.843 298.845 339.903 295.806 331.885C292.007 321.862 281.616 323.213 275.01 324.97C268.405 326.728 244.024 330.771 214.169 353.611M167.131 285.285C174.996 286.209 193.922 292.232 206.695 308.931C217.884 323.559 216.23 340.048 214.169 353.611M167.131 285.285C178.425 301.025 200.897 345.37 200.437 396.829M167.131 285.285C146.384 294.065 136.607 306.903 134.313 312.224C140.918 328.672 146.34 333.976 165.521 359.171C184.703 384.366 179.941 394.099 180.664 395.98C181.243 397.485 194.087 397.173 200.437 396.829" stroke="#EE56A3" stroke-width="4.2575" stroke-linecap="round" stroke-linejoin="round"/>
  <path d="M450.443 324.183C452.642 322.241 455.559 315.853 449.636 305.841C447.42 302.096 443.978 298.008 440.336 293.421M450.443 324.183C451.964 324.794 456.521 326.223 462.589 327.062C468.657 327.901 472.546 325.435 473.733 324.097M450.443 324.183C437.374 320 402.858 313.75 369.35 322.215C366.361 323.387 360.047 323.615 358.698 315.147C357.013 304.562 366.701 300.569 373.306 298.811C379.912 297.053 403.077 288.442 440.336 293.421M447.19 210.752C440.824 215.464 427.396 230.097 424.613 250.936C422.175 269.191 431.806 282.677 440.336 293.421M447.19 210.752C445.214 230.024 447.755 279.674 473.733 324.097M447.19 210.752C469.557 208.059 484.421 214.339 489.057 217.816C491.501 235.371 489.433 242.668 485.312 274.065C481.191 305.461 490.161 311.54 490.468 313.532C490.714 315.125 479.413 321.239 473.733 324.097" stroke="#EE56A3" stroke-width="4.2575" stroke-linecap="round" stroke-linejoin="round"/>
  <path d="M206.657 370.683C206.493 382.315 212.2 386.408 215.074 387.001C214.058 388.286 216.429 390.12 211.581 393.864C206.733 397.607 202.132 397.401 200.438 396.829C200.898 345.37 178.425 301.025 167.131 285.285C174.997 286.209 188.306 293.905 201.079 310.604C212.268 325.232 210.615 341.721 208.553 355.284C207.673 361.075 206.718 366.332 206.657 370.683Z" fill="#8C1652"/>
  <path d="M455.34 304.502C461.264 314.514 458.347 320.902 456.148 322.845C457.668 323.455 456.522 326.225 462.589 327.064C468.657 327.902 472.546 325.436 473.733 324.098C447.756 279.675 445.214 230.026 447.19 210.754C440.824 215.465 433.1 228.758 430.317 249.598C427.879 267.852 437.51 281.339 446.04 292.082C449.683 296.67 453.124 300.757 455.34 304.502Z" fill="#8C1652"/>
  <path d="M200.437 396.829C200.897 345.37 178.425 301.025 167.131 285.285C146.384 294.065 136.607 306.903 134.313 312.224C140.918 328.672 146.34 333.976 165.521 359.171C184.703 384.366 179.941 394.099 180.664 395.98C181.243 397.485 194.087 397.173 200.437 396.829Z" fill="black" stroke="#EE56A3" stroke-width="4.2575" stroke-linecap="round" stroke-linejoin="round"/>
  <path d="M473.733 324.097C447.755 279.674 445.214 230.024 447.19 210.752C469.557 208.059 484.421 214.339 489.057 217.816C491.501 235.371 489.433 242.668 485.312 274.065C481.191 305.461 490.161 311.54 490.468 313.532C490.714 315.125 479.413 321.239 473.733 324.097Z" fill="black" stroke="#EE56A3" stroke-width="4.2575" stroke-linecap="round" stroke-linejoin="round"/>
  <path d="M142.85 328.897C144.815 323.752 153.519 311.919 172.612 305.746M169.666 364.734C172.178 361.64 179.584 355.183 189.118 354.101M174.73 371.799C176.877 369.333 183.271 364.251 191.661 363.655M221.078 349.46C227.79 351.615 239.563 359.456 232.954 373.583M236.482 338.995C242.609 340.092 253.983 345.978 250.454 360.741M252.521 331.771C258.832 334.411 270.003 342.442 264.2 353.445M266.832 326.598C272.063 328.313 281.411 334.904 276.955 347.549M279.486 324.594C283.783 326.785 291.444 333.644 287.713 343.549" stroke="#EE56A3" stroke-width="2.83833" stroke-linecap="round" stroke-linejoin="round"/>
  <path d="M489.936 236.526C485.673 233.038 472.239 227.097 452.604 231.231M484.48 280.952C480.763 279.516 471.127 277.594 462.316 281.394M483.598 289.599C480.508 288.526 472.435 287.295 464.859 290.948M432.277 293.253C427.524 298.459 421.206 311.114 433.962 320.088M413.709 291.828C408.937 295.827 401.994 306.587 412.394 317.643M396.201 293.532C392.037 298.96 386.336 311.482 396.84 318.145M381.211 296.157C377.525 300.245 372.69 310.612 382.842 319.369M369.236 300.708C366.596 304.745 363.358 314.505 371.518 321.246" stroke="#EE56A3" stroke-width="2.83833" stroke-linecap="round" stroke-linejoin="round"/>
  <path d="M213.372 262.419C204.73 240.19 196.088 194.991 192.096 170.755C191.566 167.537 192.946 164.312 195.67 162.519C250.398 126.502 318.602 117.386 350.964 117.215C354.081 117.199 356.87 118.974 358.101 121.837C365.018 137.931 377.506 175.465 385.894 201.622C387.749 206.915 389.253 211.597 390.25 215.346C389.001 211.362 387.525 206.707 385.894 201.622C378.092 179.361 364.077 146.306 355.362 126.504C353.915 123.216 350.536 121.216 346.959 121.534C258.941 129.36 201.884 162.745 196.328 167.241C191.782 170.918 205.796 232.225 213.372 262.419Z" fill="#7C1348"/>
  <path d="M225.152 246.007C217.07 225.453 211.253 194.528 208.702 177.148C208.272 174.218 209.416 171.298 211.846 169.606C229.341 157.431 273.428 136.582 339.836 130.641C343.461 130.317 346.88 132.4 348.274 135.762C361.587 167.866 368.551 193.059 371.367 206.42C372.205 210.391 369.864 214.249 366.026 215.57C308.471 235.387 257.749 246.651 233.915 250.822C230.197 251.473 226.533 249.52 225.152 246.007Z" fill="#743461"/>
  <g filter="url(#filter0_f_122_2389)">
    <path d="M208.894 177.199L219.307 184.714C220.855 185.83 223.041 185.132 223.656 183.326L228.479 169.143C229.049 167.469 230.995 166.717 232.542 167.575L245.823 174.934C247.247 175.723 249.042 175.155 249.752 173.689L256.778 159.196C257.544 157.615 259.549 157.103 260.979 158.123L273.463 167.023C274.903 168.05 276.921 167.524 277.677 165.924L284.365 151.768C285.096 150.222 287.017 149.668 288.458 150.588L299.466 157.611C300.912 158.533 302.84 157.972 303.565 156.418L308.737 145.334C309.468 143.768 311.416 143.213 312.862 144.158L323.815 151.319C325.166 152.203 326.981 151.783 327.807 150.396L333.864 140.222C334.665 138.877 336.404 138.434 337.751 139.233L353.335 148.473M361.998 170.758L343.4 159.56C341.946 158.685 340.054 159.272 339.352 160.817L332.47 175.963C331.749 177.549 329.783 178.117 328.327 177.16L318.239 170.531C316.846 169.615 314.967 170.092 314.179 171.561L308.175 182.753C307.391 184.216 305.524 184.696 304.131 183.794L291.829 175.826C290.389 174.894 288.459 175.441 287.722 176.989L281.857 189.324C281.083 190.953 279.005 191.456 277.571 190.361L267.202 182.441C265.876 181.428 263.966 181.772 263.077 183.185L254.045 197.538C253.226 198.841 251.517 199.253 250.193 198.467L238.479 191.507C237.111 190.695 235.342 191.165 234.558 192.551L227.903 204.323C227.126 205.698 225.375 206.174 224.009 205.382L212.134 198.499M216.887 216.359L229.025 223.796C230.342 224.602 232.062 224.208 232.896 222.909L239.829 212.109C240.638 210.85 242.285 210.435 243.594 211.16L257.88 219.078C259.161 219.788 260.771 219.407 261.598 218.199L269.662 206.423C270.467 205.247 272.02 204.851 273.29 205.497L285.374 211.641C286.778 212.355 288.495 211.789 289.199 210.38L294.174 200.431C294.877 199.024 296.591 198.457 297.995 199.168L312.738 206.634C314.067 207.307 315.69 206.838 316.455 205.56L321.35 197.383C322.096 196.137 323.662 195.655 324.98 196.267L334.677 200.769C336.082 201.421 337.751 200.826 338.427 199.432L345.88 184.057C346.519 182.738 348.057 182.123 349.43 182.637L366.902 189.185M223.073 239.605L232.996 244.35C234.126 244.891 235.477 244.626 236.32 243.7L244.17 235.072C244.954 234.211 246.185 233.916 247.274 234.328L261.42 239.684C262.576 240.122 263.882 239.761 264.649 238.793L273.675 227.409C274.437 226.448 275.73 226.085 276.88 226.509L290.887 231.671C292.182 232.149 293.632 231.625 294.324 230.431L299.856 220.887C300.539 219.709 301.962 219.182 303.248 219.631L317.656 224.665C318.898 225.099 320.275 224.622 320.983 223.514L326.286 215.218C326.993 214.113 328.364 213.636 329.604 214.064L341.417 218.144C342.806 218.624 344.332 217.964 344.934 216.623L351.022 203.044C351.614 201.723 353.106 201.06 354.483 201.504L371.655 207.045" stroke="#EE56A3" stroke-width="1.41917"/>
  </g>
  <path d="M326.133 338.086C294.407 347.626 271.905 338.264 270.405 336.746C263.335 333.878 249.723 263.109 306.705 249.589C363.686 236.069 383.319 291.344 382.58 301.957C381.841 312.57 357.858 328.546 326.133 338.086Z" fill="#4F1633" stroke="#EE56A3" stroke-width="5.67666" stroke-linecap="round" stroke-linejoin="round"/>
  <path d="M240.151 279.082C223.684 273.818 215.464 265.861 213.372 262.42C238.014 261.607 307.888 251.054 390.251 215.347C388.485 226.908 381.17 236.59 376.831 240.938C376.091 241.68 375.191 242.215 374.21 242.582C329.974 259.127 270.678 273.599 244.29 279.268C242.913 279.564 241.492 279.511 240.151 279.082Z" fill="#4F1633"/>
  <path d="M213.108 261.734C204.555 239.274 196.047 194.745 192.096 170.755C191.566 167.537 192.946 164.312 195.67 162.519C250.398 126.502 318.602 117.386 350.964 117.215C354.081 117.199 356.87 118.974 358.101 121.837C366.158 140.583 381.773 188.418 389.664 213.48C390.054 214.719 390.164 216.018 389.899 217.289C387.666 227.986 380.924 236.835 376.83 240.937C376.09 241.679 375.19 242.214 374.209 242.581C329.973 259.126 270.677 273.598 244.289 279.267C242.912 279.563 241.491 279.51 240.15 279.081C224.607 274.112 216.412 266.745 213.782 263.04C213.494 262.634 213.285 262.2 213.108 261.734Z" stroke="#EE56A3" stroke-width="4.2575"/>
  <circle cx="317.983" cy="172.324" r="21.593" transform="rotate(-14.9027 317.983 172.324)" fill="#130C27" stroke="#EE56A3" stroke-width="2.83833"/>
  <circle cx="251.755" cy="189.949" r="21.593" transform="rotate(-14.9027 251.755 189.949)" fill="#130C27" stroke="#EE56A3" stroke-width="2.83833"/>
  <circle cx="317.982" cy="172.323" r="15.9052" transform="rotate(-14.9027 317.982 172.323)" fill="#F5B000" stroke="#F5B000" stroke-width="2.83833"/>
  <circle cx="251.754" cy="189.948" r="17.3244" transform="rotate(-14.9027 251.754 189.948)" fill="#8C65FF"/>
  <g filter="url(#filter1_f_122_2389)">
    <path d="M312.649 164.797C315.668 162.395 324.848 162.205 327.146 170.839" stroke="white" stroke-width="5.67666" stroke-linecap="round" stroke-linejoin="round"/>
  </g>
  <g filter="url(#filter2_f_122_2389)">
    <path d="M246.421 182.422C249.44 180.02 258.62 179.83 260.918 188.464" stroke="white" stroke-width="5.67666" stroke-linecap="round" stroke-linejoin="round"/>
  </g>
  <path d="M255.861 220.495L257.158 234.422C261.528 233.876 267.072 232.999 273.425 231.741C278.678 230.7 284.483 229.398 290.634 227.804C295.907 226.438 301.434 224.858 307.085 223.044C312.278 221.378 317.576 219.514 322.877 217.439C327.596 215.591 332.318 213.576 336.971 211.383L330.616 197.891C326.891 199.907 322.834 201.799 318.573 203.566C313.536 205.654 308.215 207.566 302.821 209.303C297.337 211.068 291.778 212.651 286.366 214.051C280.695 215.517 275.187 216.782 270.097 217.843C264.802 218.948 259.96 219.832 255.861 220.495Z" fill="#130C27"/>
  <path d="M253.285 234.853C254.444 234.743 255.739 234.6 257.158 234.422M341.77 209.045C340.181 209.846 338.58 210.625 336.971 211.383M251.245 221.193C252.648 220.997 254.193 220.764 255.861 220.495M335.502 195.048C333.951 196.022 332.318 196.969 330.616 197.891M257.158 234.422L255.861 220.495M257.158 234.422C261.528 233.876 267.072 232.999 273.425 231.741M255.861 220.495C259.96 219.832 264.802 218.948 270.097 217.843M273.425 231.741L270.097 217.843M273.425 231.741C278.678 230.7 284.483 229.398 290.634 227.804M270.097 217.843C275.187 216.782 280.695 215.517 286.366 214.051M286.366 214.051L290.634 227.804M286.366 214.051C291.778 212.651 297.337 211.068 302.821 209.303M290.634 227.804C295.907 226.438 301.434 224.858 307.085 223.044M307.085 223.044L302.821 209.303M307.085 223.044C312.278 221.378 317.576 219.514 322.877 217.439M302.821 209.303C308.215 207.566 313.536 205.654 318.573 203.566M322.877 217.439L318.573 203.566M322.877 217.439C327.596 215.591 332.318 213.576 336.971 211.383M318.573 203.566C322.834 201.799 326.891 199.907 330.616 197.891M330.616 197.891L336.971 211.383" stroke="#EE56A3" stroke-width="2.83833" stroke-linecap="round" stroke-linejoin="round"/>
  <path d="M268.632 364.5C257.777 343.36 249.568 315.791 246.821 304.648C291.479 283.821 357.806 271.386 385.388 267.771C390.463 280.947 393.09 315.545 393.77 331.198C401.136 331.774 430.801 334.891 439.266 339.26C355.033 369.79 288.676 383.66 233.146 396.982C242.568 385.489 260.729 370.539 268.632 364.5Z" fill="#19171D"/>
  <path d="M268.632 364.5C257.777 343.36 249.568 315.791 246.821 304.648C291.479 283.821 357.806 271.386 385.388 267.771C390.463 280.947 393.09 315.545 393.77 331.197M268.632 364.5C273.516 363.201 354.092 341.757 393.77 331.197M268.632 364.5C260.729 370.539 242.568 385.489 233.146 396.982C288.676 383.66 355.033 369.79 439.266 339.26C430.801 334.891 401.136 331.774 393.77 331.197" stroke="#EE56A3" stroke-width="2.83833" stroke-linecap="round" stroke-linejoin="round"/>
  <path d="M252.484 308.561C252.342 312.281 265.354 343.249 271.58 358.222L388.892 328.216C389.942 319.481 384.996 289.452 382.89 275.372C348.087 274.068 252.662 303.911 252.484 308.561Z" stroke="#EE56A3" stroke-width="1.41917" stroke-linecap="round"/>
  <path d="M383.307 192.111C381.37 185.762 377.466 172.945 377.344 172.484L392.661 168.408C395.812 179.507 387.738 188.835 383.307 192.111Z" fill="#4F1633"/>
  <path d="M206.316 239.61C204.84 233.138 201.857 220.076 201.734 219.615L186.417 223.692C189.2 234.889 200.842 238.969 206.316 239.61Z" fill="#4F1633"/>
  <path d="M392.661 168.409L377.114 172.547L371.873 152.854C387.575 154.397 392.275 163.867 392.661 168.409Z" fill="#6C1943"/>
  <path d="M186.418 223.693L201.965 219.555L196.724 199.861C183.865 209.006 184.495 219.559 186.418 223.693Z" fill="#6C1943"/>
  <path d="M384.354 155.705L389.982 161.355C388.767 147.904 389.604 140.113 392.801 129.075L411.191 141.936L426.749 109.417C442.49 110.655 439.692 101.25 436.326 96.393C434.82 106.923 427.425 105.636 424.298 103.479L409.404 135.224C409.209 137.394 398.129 124.538 391.54 124.336C385.084 125.284 384.085 145.741 384.354 155.705Z" fill="#7C1348"/>
  <path d="M187.414 209.655L184.44 214.597C178.808 202.321 177.749 188.24 169.489 180.252L164.302 196.445L134.639 175.961C121.595 184.86 119.348 175.308 119.855 169.42C126.395 177.808 132.172 173.017 133.813 169.59L160.51 189.42C161.758 191.206 166.68 171.075 169.916 171.332C173.151 171.588 185.041 200.74 187.414 209.655Z" fill="#7C1348"/>
  <path d="M378.492 154.02C375.67 152.992 372.993 152.464 371.036 152.293L382.891 192.631C387.432 189.121 395.763 179.275 392.756 167.979C392.377 166.553 391.843 165.246 391.187 164.049M378.492 154.02C379.347 142.85 382.721 120.029 389.377 118.109C397.698 115.708 404.359 130.919 406.684 128.434C409.009 125.949 413.943 110.821 420.279 104.469C418.518 101.827 417.032 96.7883 421.064 92.6882C425.057 88.6275 431.573 91.2842 434.056 93.1642C437.339 95.6503 441.409 101.21 437.207 107.058C434.156 111.305 427.988 109.824 425.285 108.552C421.856 119.979 414.048 142.638 410.256 141.856C405.516 140.878 392.951 122.871 391.624 130.767C390.307 138.603 387.019 150.357 391.187 164.049M378.492 154.02C383.215 155.74 388.344 158.86 391.187 164.049" stroke="#EE56A3" stroke-width="4.2575" stroke-linecap="round" stroke-linejoin="round"/>
  <path d="M190.816 203.955C192.754 201.66 194.815 199.871 196.428 198.75L206.192 239.645C200.506 238.856 188.384 234.454 185.378 223.158C184.998 221.732 184.812 220.332 184.786 218.967M190.816 203.955C184.522 194.687 176.409 162.526 169.679 164.167C161.265 166.22 163.046 182.731 159.793 181.73C156.54 180.729 144.74 170.055 136.085 167.692C136.299 164.524 135.085 159.413 129.548 157.86C124.065 156.321 119.731 161.865 118.511 164.731C116.898 168.52 116.13 175.367 122.683 178.353C127.441 180.521 132.057 176.17 133.77 173.724C142.426 181.935 160.463 197.715 163.365 195.151C166.992 191.947 167.106 173.851 171.019 180.836C174.931 187.821 181.597 205.015 184.786 218.967M190.816 203.955C187.574 207.795 184.674 213.052 184.786 218.967" stroke="#EE56A3" stroke-width="4.2575" stroke-linecap="round" stroke-linejoin="round"/>
  <path d="M263.863 303.828L235.702 311.322C237.318 317.397 241.495 318.047 243.381 317.612C247.112 316.755 255.823 314.626 260.814 312.973C265.804 311.32 264.926 306.187 263.863 303.828Z" fill="#8C1652"/>
  <path d="M368.221 276.055L396.382 268.561C397.999 274.636 394.698 277.275 392.846 277.835C389.181 278.946 380.565 281.429 375.413 282.475C370.26 283.521 368.472 278.631 368.221 276.055Z" fill="#8C1652"/>
  <path d="M262.387 315.818L234.226 323.312C235.843 329.388 240.019 330.037 241.905 329.603C245.637 328.745 254.347 326.617 259.338 324.963C264.329 323.31 263.45 318.177 262.387 315.818Z" fill="#8C1652"/>
  <path d="M375.462 285.727L403.623 278.232C405.24 284.308 401.939 286.947 400.086 287.507C396.422 288.618 387.806 291.101 382.653 292.147C377.501 293.193 375.712 288.303 375.462 285.727Z" fill="#8C1652"/>
  <path d="M268.412 325.816L240.251 333.311C241.868 339.386 246.044 340.035 247.93 339.601C251.661 338.743 260.372 336.615 265.363 334.961C270.353 333.308 269.475 328.176 268.412 325.816Z" fill="#8C1652"/>
  <path d="M375.204 297.395L403.365 289.9C404.982 295.976 401.681 298.615 399.828 299.175C396.164 300.286 387.547 302.769 382.395 303.815C377.243 304.861 375.454 299.971 375.204 297.395Z" fill="#8C1652"/>
  <path d="M264.772 307.246L236.611 314.74C237.88 319.51 241.962 319.806 243.845 319.357C247.569 318.473 256.27 316.306 261.278 314.718C266.286 313.13 265.694 309.075 264.772 307.246Z" fill="#6C1943"/>
  <path d="M369.131 279.471L397.292 271.977C398.561 276.746 395.166 279.032 393.31 279.579C389.638 280.662 381.012 283.107 375.877 284.218C370.742 285.329 369.24 281.516 369.131 279.471Z" fill="#6C1943"/>
  <path d="M263.297 319.238L235.136 326.732C236.405 331.502 240.488 331.798 242.37 331.35C246.094 330.465 254.795 328.298 259.803 326.71C264.811 325.122 264.219 321.067 263.297 319.238Z" fill="#6C1943"/>
  <path d="M376.372 289.145L404.533 281.65C405.802 286.42 402.407 288.706 400.551 289.252C396.879 290.336 388.253 292.781 383.118 293.892C377.983 295.003 376.481 291.19 376.372 289.145Z" fill="#6C1943"/>
  <path d="M269.321 329.234L241.16 336.729C242.429 341.498 246.511 341.794 248.394 341.346C252.118 340.461 260.819 338.294 265.827 336.706C270.835 335.118 270.243 331.063 269.321 329.234Z" fill="#6C1943"/>
  <path d="M376.113 300.813L404.274 293.318C405.543 298.088 402.148 300.374 400.292 300.92C396.621 302.004 387.994 304.449 382.859 305.56C377.724 306.671 376.222 302.858 376.113 300.813Z" fill="#6C1943"/>
  <path d="M265.211 308.896L237.05 316.391C237.984 319.899 241.975 319.854 243.854 319.393C247.572 318.482 256.262 316.278 261.287 314.753C266.312 313.228 265.997 310.213 265.211 308.896Z" fill="#4F1633"/>
  <path d="M369.57 281.123L397.731 273.629C398.665 277.137 395.179 279.082 393.319 279.616C389.641 280.673 381.004 283.081 375.886 284.255C370.768 285.429 369.543 282.657 369.57 281.123Z" fill="#4F1633"/>
  <path d="M263.736 320.886L235.575 328.381C236.508 331.889 240.5 331.844 242.379 331.383C246.096 330.472 254.787 328.268 259.812 326.743C264.836 325.218 264.521 322.203 263.736 320.886Z" fill="#4F1633"/>
  <path d="M376.811 290.793L404.972 283.299C405.905 286.807 402.42 288.752 400.56 289.286C396.882 290.343 388.245 292.751 383.127 293.925C378.009 295.099 376.784 292.326 376.811 290.793Z" fill="#4F1633"/>
  <path d="M269.76 330.882L241.6 338.377C242.533 341.885 246.525 341.84 248.403 341.379C252.121 340.468 260.812 338.265 265.836 336.74C270.861 335.214 270.546 332.199 269.76 330.882Z" fill="#4F1633"/>
  <path d="M376.553 302.463L404.713 294.969C405.647 298.477 402.161 300.422 400.302 300.956C396.623 302.013 387.987 304.421 382.869 305.595C377.751 306.769 376.525 303.996 376.553 302.463Z" fill="#4F1633"/>
  <rect x="234.242" y="310.201" width="31.0006" height="11.2591" rx="5.62954" transform="rotate(-14.9027 234.242 310.201)" stroke="#EE56A3" stroke-width="4.2575"/>
  <rect x="-1.50968" y="2.60461" width="31.0006" height="11.2591" rx="5.62954" transform="matrix(-0.966364 0.257179 0.257179 0.966364 394.963 264.734)" stroke="#EE56A3" stroke-width="4.2575"/>
  <rect x="232.768" y="322.195" width="31.0006" height="11.2591" rx="5.62954" transform="rotate(-14.9027 232.768 322.195)" stroke="#EE56A3" stroke-width="4.2575"/>
  <rect x="-1.50968" y="2.60461" width="31.0006" height="11.2591" rx="5.62954" transform="matrix(-0.966364 0.257179 0.257179 0.966364 402.204 274.408)" stroke="#EE56A3" stroke-width="4.2575"/>
  <rect x="238.791" y="332.191" width="31.0006" height="11.2591" rx="5.62954" transform="rotate(-14.9027 238.791 332.191)" stroke="#EE56A3" stroke-width="4.2575"/>
  <rect x="-1.50968" y="2.60461" width="31.0006" height="11.2591" rx="5.62954" transform="matrix(-0.966364 0.257179 0.257179 0.966364 401.945 286.074)" stroke="#EE56A3" stroke-width="4.2575"/>
  <path d="M244.748 307.652C243.9 309.424 243.098 314.066 246.67 318.464M254.176 305.143C253.179 306.863 252.116 311.448 255.844 316.023" stroke="#EE56A3" stroke-width="2.83833" stroke-linecap="round" stroke-linejoin="round"/>
  <path d="M386.709 269.873C388.325 270.989 391.329 274.619 390.416 280.211M377.281 272.383C379.001 273.38 382.203 276.829 381.242 282.652" stroke="#EE56A3" stroke-width="2.83833" stroke-linecap="round" stroke-linejoin="round"/>
  <path d="M243.272 319.644C242.425 321.416 241.623 326.058 245.195 330.457M252.701 317.135C251.704 318.855 250.641 323.44 254.369 328.015" stroke="#EE56A3" stroke-width="2.83833" stroke-linecap="round" stroke-linejoin="round"/>
  <path d="M393.95 279.543C395.566 280.659 398.569 284.289 397.656 289.881M384.521 282.053C386.242 283.05 389.443 286.499 388.482 292.322" stroke="#EE56A3" stroke-width="2.83833" stroke-linecap="round" stroke-linejoin="round"/>
  <path d="M249.296 329.64C248.449 331.412 247.647 336.054 251.219 340.453M258.725 327.131C257.728 328.852 256.665 333.436 260.393 338.011" stroke="#EE56A3" stroke-width="2.83833" stroke-linecap="round" stroke-linejoin="round"/>
  <path d="M393.691 291.211C395.307 292.327 398.31 295.957 397.397 301.549M384.262 293.72C385.983 294.718 389.184 298.167 388.223 303.99" stroke="#EE56A3" stroke-width="2.83833" stroke-linecap="round" stroke-linejoin="round"/>
  <path d="M274.454 369.648C275.528 369.362 352.756 348.809 391.236 338.568M268.71 375.968L404.061 339.947M260.504 382.943C262.652 382.371 363.565 355.515 413.753 342.159M288.684 363.705C287.86 365.649 282.291 375.388 279.609 380.015M332.086 352.154L335.539 365.13M299.199 360.906L293.778 377.443M309.938 358.048L308.469 372.334M320.676 355.191L322.563 368.583M343.272 349.177L348.962 361.557M353.339 346.498L363.28 357.747M365.196 343.342L378.717 353.639M377.336 340.112L397.75 348.574" stroke="#EE56A3" stroke-width="1.41917" stroke-linecap="round"/>
  <path d="M277.832 308.404C285.504 306.362 302.496 301.84 309.087 300.086M279.25 313.733L292.576 310.186M280.497 318.418L307.875 311.132M281.637 322.702L317.253 313.223M282.948 327.63L288.279 326.211M284.324 332.8L328.42 321.065M285.743 338.13L338.561 324.074M287.226 343.703L316.3 335.965" stroke="#EE56A3" stroke-width="1.41917" stroke-linecap="round"/>
  <path d="M232.677 396.821C227.568 401.84 255.193 397.117 341.693 374.097C424.461 352.07 445.524 339.214 438.094 338.454" stroke="#EE56A3" stroke-width="1.41917" stroke-linecap="round"/>
  <rect xmlns="http://www.w3.org/2000/svg" x="147.01" y="100.0" width="423.48" height="13.1893" transform="rotate(-104.0057 487.01 100.688)" fill="url(#paint1_linear_122_2389)"/>
  <rect x="147.01" y="100.688" width="342.48" height="13.1893" transform="rotate(-14.1757 147.01 100.688)" fill="url(#paint1_linear_122_2389)"/>
  <rect x="35.4756" y="214.551" width="282.946" height="13.6754" transform="rotate(75.7299 35.4756 214.551)" fill="url(#paint2_linear_122_2389)"/>
  <rect x="379.94" y="422.469" width="282.946" height="13.6754" transform="rotate(166.387 379.94 422.469)" fill="url(#paint3_linear_122_2389)"/>
  <g filter="url(#filter3_f_122_2389)">
    <rect x="198.05" y="477.153" width="23.1035" height="23.1035" transform="rotate(-90 198.05 477.153)" stroke="#302364" stroke-width="2.10032"/>
  </g>
  <g filter="url(#filter4_f_122_2389)">
    <rect x="197" y="539.203" width="25.2039" height="25.2039" transform="rotate(-90 197 539.203)" fill="#302364"/>
    <rect x="198.05" y="538.153" width="23.1035" height="23.1035" transform="rotate(-90 198.05 538.153)" stroke="#302364" stroke-width="2.10032"/>
  </g>
  <g filter="url(#filter5_f_122_2389)">
    <rect x="77" y="441.203" width="25.2039" height="25.2039" transform="rotate(-90 77 441.203)" fill="#302364"/>
    <rect x="78.0502" y="440.153" width="23.1035" height="23.1035" transform="rotate(-90 78.0502 440.153)" stroke="#302364" stroke-width="2.10032"/>
  </g>
  <g filter="url(#filter6_f_122_2389)">
    <rect x="133.024" y="507.545" width="22.5213" height="22.5213" transform="rotate(-90 133.024 507.545)" stroke="#302364" stroke-width="2.04739"/>
  </g>
  <defs>
    <filter id="filter0_f_122_2389" x="204.221" y="133.868" width="171.91" height="115.728" filterUnits="userSpaceOnUse" color-interpolation-filters="sRGB">
      <feFlood flood-opacity="0" result="BackgroundImageFix"/>
      <feBlend mode="normal" in="SourceGraphic" in2="BackgroundImageFix" result="shape"/>
      <feGaussianBlur stdDeviation="2.12875" result="effect1_foregroundBlur_122_2389"/>
    </filter>
    <filter id="filter1_f_122_2389" x="305.553" y="156.276" width="28.6898" height="21.6595" filterUnits="userSpaceOnUse" color-interpolation-filters="sRGB">
      <feFlood flood-opacity="0" result="BackgroundImageFix"/>
      <feBlend mode="normal" in="SourceGraphic" in2="BackgroundImageFix" result="shape"/>
      <feGaussianBlur stdDeviation="2.12875" result="effect1_foregroundBlur_122_2389"/>
    </filter>
    <filter id="filter2_f_122_2389" x="239.325" y="173.901" width="28.6898" height="21.6595" filterUnits="userSpaceOnUse" color-interpolation-filters="sRGB">
      <feFlood flood-opacity="0" result="BackgroundImageFix"/>
      <feBlend mode="normal" in="SourceGraphic" in2="BackgroundImageFix" result="shape"/>
      <feGaussianBlur stdDeviation="2.12875" result="effect1_foregroundBlur_122_2389"/>
    </filter>
    <filter id="filter3_f_122_2389" x="194.9" y="450.9" width="29.4047" height="29.4038" filterUnits="userSpaceOnUse" color-interpolation-filters="sRGB">
      <feFlood flood-opacity="0" result="BackgroundImageFix"/>
      <feBlend mode="normal" in="SourceGraphic" in2="BackgroundImageFix" result="shape"/>
      <feGaussianBlur stdDeviation="1.05016" result="effect1_foregroundBlur_122_2389"/>
    </filter>
    <filter id="filter4_f_122_2389" x="194.9" y="511.9" width="29.4047" height="29.4038" filterUnits="userSpaceOnUse" color-interpolation-filters="sRGB">
      <feFlood flood-opacity="0" result="BackgroundImageFix"/>
      <feBlend mode="normal" in="SourceGraphic" in2="BackgroundImageFix" result="shape"/>
      <feGaussianBlur stdDeviation="1.05016" result="effect1_foregroundBlur_122_2389"/>
    </filter>
    <filter id="filter5_f_122_2389" x="74.8997" y="413.9" width="29.4047" height="29.4038" filterUnits="userSpaceOnUse" color-interpolation-filters="sRGB">
      <feFlood flood-opacity="0" result="BackgroundImageFix"/>
      <feBlend mode="normal" in="SourceGraphic" in2="BackgroundImageFix" result="shape"/>
      <feGaussianBlur stdDeviation="1.05016" result="effect1_foregroundBlur_122_2389"/>
    </filter>
    <filter id="filter6_f_122_2389" x="129.953" y="481.953" width="28.6636" height="28.6631" filterUnits="userSpaceOnUse" color-interpolation-filters="sRGB">
      <feFlood flood-opacity="0" result="BackgroundImageFix"/>
      <feBlend mode="normal" in="SourceGraphic" in2="BackgroundImageFix" result="shape"/>
      <feGaussianBlur stdDeviation="1.0237" result="effect1_foregroundBlur_122_2389"/>
    </filter>
    <linearGradient id="paint0_linear_122_2389" x1="440.227" y1="263.954" x2="205.994" y2="224.41" gradientUnits="userSpaceOnUse">
      <stop offset="0.0636101" stop-color="#171231"/>
      <stop offset="0.700683" stop-color="#181332" stop-opacity="0"/>
    </linearGradient>
    <linearGradient id="paint1_linear_122_2389" x1="410.684" y1="107.107" x2="401.114" y2="59.2047" gradientUnits="userSpaceOnUse">
      <stop offset="0" stop-color="#181333"/>
      <stop offset="0.700683" stop-color="#181332" stop-opacity="0"/>
    </linearGradient>
    <linearGradient id="paint2_linear_122_2389" x1="308.659" y1="221.298" x2="294.558" y2="162.276" gradientUnits="userSpaceOnUse">
      <stop offset="0" stop-color="#181333"/>
      <stop offset="1" stop-color="#181332" stop-opacity="0"/>
    </linearGradient>
    <linearGradient id="paint3_linear_122_2389" x1="653.124" y1="429.216" x2="639.022" y2="370.194" gradientUnits="userSpaceOnUse">
      <stop offset="0" stop-color="#181333"/>
      <stop offset="1" stop-color="#181332" stop-opacity="0"/>
    </linearGradient>
  </defs>
</svg>
